<?xml version="1.0" encoding="UTF-8" standalone="no"?>
<!-- Created with Inkscape (http://www.inkscape.org/) -->

<svg
   version="1.1"
   id="svg2"
   xml:space="preserve"
   width="672"
   height="268"
   viewBox="0 0 672 268"
   sodipodi:docname="Tally-Logo-Vector-eps (1).eps"
   xmlns:inkscape="http://www.inkscape.org/namespaces/inkscape"
   xmlns:sodipodi="http://sodipodi.sourceforge.net/DTD/sodipodi-0.dtd"
   xmlns="http://www.w3.org/2000/svg"
   xmlns:svg="http://www.w3.org/2000/svg"><defs
     id="defs6" /><sodipodi:namedview
     id="namedview4"
     pagecolor="#ffffff"
     bordercolor="#666666"
     borderopacity="1.0"
     inkscape:pageshadow="2"
     inkscape:pageopacity="0.0"
     inkscape:pagecheckerboard="0" /><g
     id="g8"
     inkscape:groupmode="layer"
     inkscape:label="ink_ext_XXXXXX"
     transform="matrix(1.3333333,0,0,-1.3333333,0,268)"><g
       id="g10"
       transform="scale(0.1)"><path
         d="m 57.9844,242.68 h 30.6523 c 28.4723,0 43.0623,-13.848 43.0623,-40.864 0,-26.984 -14.59,-40.121 -43.0623,-40.121 H 57.9844 Z m 0,-240.80891 V 116.449 h 24.8242 c 71.5044,0 105.0864,31.364 105.0864,85.367 0,54 -33.582,84.664 -105.0864,84.664 H 1.80859 V 1.87109 H 57.9844"
         style="fill:#231f20;fill-opacity:1;fill-rule:evenodd;stroke:none"
         id="path12" /><path
         d="m 353.539,207.672 c 0,30.641 14.602,39.398 36.496,39.398 24.082,0 37.215,-8.757 37.215,-39.398 V 90.8984 c 0,-32.0976 -13.133,-40.8671 -37.215,-40.8671 -21.894,0 -36.496,8.7695 -36.496,40.8671 z M 297.363,98.2031 c 0,-70.789 37.95,-96.33201 92.672,-96.33201 56.195,0 94.867,25.54301 94.867,96.33201 V 200.363 c 0,69.336 -38.672,94.867 -94.867,94.867 -54.722,0 -92.672,-25.531 -92.672,-94.867 V 98.2031"
         style="fill:#231f20;fill-opacity:1;fill-rule:evenodd;stroke:none"
         id="path14" /><path
         d="m 650.566,1.87109 h 54 L 750.543,197.449 792.129,1.87109 h 54.746 L 913.27,286.48 H 860.012 L 819.855,101.117 h -1.453 L 777.539,286.48 H 722.816 L 682.66,101.117 h -1.449 L 641.066,286.48 H 588.535 L 650.566,1.87109"
         style="fill:#231f20;fill-opacity:1;fill-rule:evenodd;stroke:none"
         id="path16" /><path
         d="M 1181.84,1.87109 V 50.0313 h -102.91 v 75.1637 h 75.17 v 48.172 h -75.17 v 64.946 h 98.53 V 286.48 H 1022.74 V 1.87109 h 159.1"
         style="fill:#231f20;fill-opacity:1;fill-rule:evenodd;stroke:none"
         id="path18" /><path
         d="m 1359.16,242.68 h 29.92 c 24.82,0 39.41,-12.395 39.41,-39.403 0,-28.445 -14.59,-40.121 -39.41,-40.121 h -29.92 z M 1496.36,1.87109 1440.16,129.586 c 32.86,10.945 44.53,36.477 44.53,72.23 0,54 -32.13,84.664 -100.73,84.664 h -82.44 V 1.87109 h 57.64 V 117.902 h 26.27 L 1435.77,1.87109 h 60.59"
         style="fill:#231f20;fill-opacity:1;fill-rule:evenodd;stroke:none"
         id="path20" /><path
         d="m 1845.17,207.672 c 0,30.641 14.6,39.398 37.22,39.398 23.36,0 37.95,-8.757 37.95,-39.398 V 90.8984 c 0,-32.0976 -14.59,-40.8671 -37.95,-40.8671 -22.62,0 -37.22,8.7695 -37.22,40.8671 z M 1789,98.2031 c 0,-70.789 38.67,-96.33201 93.39,-96.33201 55.47,0 94.16,25.54301 94.16,96.33201 V 200.363 c 0,69.336 -38.69,94.867 -94.16,94.867 -54.72,0 -93.39,-25.531 -93.39,-94.867 V 98.2031"
         style="fill:#231f20;fill-opacity:1;fill-rule:evenodd;stroke:none"
         id="path22" /><path
         d="M 2153.86,1.87109 V 125.195 h 70.79 v 48.172 h -70.79 v 64.946 h 91.23 V 286.48 H 2096.23 V 1.87109 h 57.63"
         style="fill:#231f20;fill-opacity:1;fill-rule:evenodd;stroke:none"
         id="path24" /><path
         d="m 2719.43,225.895 c -10.2,40.89 -41.59,69.335 -91.22,69.335 -59.12,0 -90.48,-31.386 -90.48,-79.535 0,-81.019 126.97,-81.019 126.97,-134.277 0,-21.9102 -14.59,-34.3008 -33.58,-34.3008 -18.22,0 -38.67,12.3906 -44.5,46.6953 l -56.19,-10.9453 c 14.59,-56.9024 50.34,-80.99611 97.78,-80.99611 59.11,0 94.14,32.11721 94.14,82.44921 0,89.0467 -126.98,91.9647 -126.98,134.2927 0,19.7 10.21,31.383 31.37,31.383 18.99,0 32.14,-11.683 40.88,-38.687 l 51.81,14.586"
         style="fill:#231f20;fill-opacity:1;fill-rule:evenodd;stroke:none"
         id="path26" /><path
         d="M 2893.85,1.87109 V 286.48 h -57.66 V 1.87109 h 57.66"
         style="fill:#231f20;fill-opacity:1;fill-rule:evenodd;stroke:none"
         id="path28" /><path
         d="M 3058.04,1.87109 V 225.895 L 3118.61,1.87109 h 42.32 L 3221.5,225.895 h 1.46 V 1.87109 h 48.9 V 286.48 H 3192.3 L 3140.51,99.6641 h -1.46 L 3088.7,286.48 h -79.55 V 1.87109 h 48.89"
         style="fill:#231f20;fill-opacity:1;fill-rule:evenodd;stroke:none"
         id="path30" /><path
         d="m 3438.97,242.68 h 30.66 c 28.45,0 43.05,-13.848 43.05,-40.864 0,-26.984 -14.6,-40.121 -43.05,-40.121 h -30.66 z m 0,-240.80891 V 116.449 h 24.81 c 70.8,0 105.1,31.364 105.1,85.367 0,54 -34.3,84.664 -105.1,84.664 h -80.99 V 1.87109 h 56.18"
         style="fill:#231f20;fill-opacity:1;fill-rule:evenodd;stroke:none"
         id="path32" /><path
         d="M 3809.7,1.87109 V 50.0313 h -90.5 V 286.48 h -57.65 V 1.87109 h 148.15"
         style="fill:#231f20;fill-opacity:1;fill-rule:evenodd;stroke:none"
         id="path34" /><path
         d="M 3965.86,1.87109 V 286.48 h -56.18 V 1.87109 h 56.18"
         style="fill:#231f20;fill-opacity:1;fill-rule:evenodd;stroke:none"
         id="path36" /><path
         d="m 4130.06,207.672 c 0,30.641 14.6,39.398 37.22,39.398 23.36,0 37.95,-8.757 37.95,-39.398 v -8.774 h 56.18 v 1.465 c 0,69.336 -38.67,94.867 -94.13,94.867 -54.74,0 -93.41,-25.531 -93.41,-94.867 V 98.2031 c 0,-70.789 38.67,-96.33201 93.41,-96.33201 55.46,0 94.13,25.54301 94.13,96.33201 v 11.6599 h -56.18 V 90.8984 c 0,-32.0976 -14.59,-40.8671 -37.95,-40.8671 -22.62,0 -37.22,8.7695 -37.22,40.8671 V 207.672"
         style="fill:#231f20;fill-opacity:1;fill-rule:evenodd;stroke:none"
         id="path38" /><path
         d="M 4441.66,1.87109 V 286.48 h -56.18 V 1.87109 h 56.18"
         style="fill:#231f20;fill-opacity:1;fill-rule:evenodd;stroke:none"
         id="path40" /><path
         d="m 4545.3,286.48 v -48.167 h 66.4 V 1.87109 h 56.2 V 238.313 h 66.4 v 48.167 h -189"
         style="fill:#231f20;fill-opacity:1;fill-rule:evenodd;stroke:none"
         id="path42" /><path
         d="m 4877.34,286.48 h -60.57 l 81,-170.031 V 1.87109 h 57.66 V 116.449 l 81.73,170.031 h -60.58 L 4927.7,171.895 4877.34,286.48"
         style="fill:#231f20;fill-opacity:1;fill-rule:evenodd;stroke:none"
         id="path44" /><path
         d="m 2042.22,1215.46 c 38.67,27 122.6,127.7 126.98,136.47 5.83,10.23 22.61,27.73 2.91,44.52 -19.71,17.51 -34.3,7.29 -55.47,-2.93 -21.16,-9.49 -116.75,-81.73 -152.51,-110.19 -34.3,-27.72 -122.6,-105.09 -122.6,-105.09 0,0 -48.15,-42.33 -32.11,-63.48 18.25,-20.44 33.58,-13.13 60.58,-5.85 24.81,7.3 132.81,78.81 172.22,106.55 z m 1974,-502.085 c 13.12,-5.828 45.98,-14.59 43.05,-45.973 0,0 -29.93,-62.027 -40.13,-66.41 -12.41,-5.816 -32.83,-5.816 -81.01,13.137 -46.69,18.262 -260.52,72.996 -318.91,84.656 -56.91,11.676 -189,32.84 -189,32.84 0,0 -16.05,10.223 -43.06,-31.363 -26.99,-43.059 -112.37,-165.664 -112.37,-165.664 0,0 -5.85,-16.785 -21.16,-16.785 -16.8,0 -85.39,4.367 -110.93,18.25 -27.01,14.589 -32.84,13.136 -17.52,40.863 16.06,26.992 75.9,145.211 101.43,169.289 24.08,23.359 -16.06,17.527 -29.91,20.457 -11.68,2.902 -270.75,16.039 -347.38,14.59 -75.16,-1.469 -344.43,-1.469 -440.76,-7.309 -95.61,-5.832 -445.89,-39.414 -538.56,-53.269 -93.42,-16.055 -467.79,-69.336 -518.87,-79.536 -50.36,-10.218 -151.05,-28.468 -151.05,-28.468 0,0 -49.64,-11.688 -99.98,10.218 -49.64,22.629 -129.17,54.723 -62.03,75.887 69.31,21.899 399.9,87.586 503.54,102.172 103.61,16.059 425.45,62.031 561.9,69.336 135.73,7.297 499.89,26.996 637.81,26.996 136.48,-1.453 326.93,-10.219 407.21,-16.797 81.02,-5.82 135.02,-10.199 150.33,-11.672 16.05,-2.918 17.52,8.77 32.84,27.016 16.05,18.957 67.15,85.379 67.15,85.379 0,0 16.78,25.535 -16.06,3.637 -32.12,-21.164 -83.93,-22.618 -110.93,1.472 -25.54,26.246 -37.93,48.156 -49.62,39.386 -11.69,-7.28 -61.31,-30.636 -86.85,-39.386 -26.98,-9.5 -140.84,-35.777 -207.98,10.199 -69.31,47.437 -70.78,64.967 -79.53,88.307 -9.49,21.16 -13.88,19.7 -35.76,5.11 -22.62,-13.86 -99.24,-51.81 -127.7,-64.23 -28.49,-11.66 -49.65,-23.33 -94.16,-18.96 -43.78,2.91 -92.68,16.05 -113.85,51.8 -19.7,35.77 -22.6,62.04 -46.68,45.98 -24.1,-17.49 -148.16,-89.01 -213.84,-108.007 -67.86,-19.699 -83.91,-28.445 -121.86,-21.164 -38.67,5.856 -78.82,21.164 -94.14,44.531 -14.61,22.61 -16.06,28.46 -34.31,15.32 -16.77,-13.86 -64.2,-50.358 -100.71,-47.433 -35.74,4.379 -128.42,27.743 -179.49,121.133 -51.1,94.89 -14.61,133.55 31.37,180.99 45.23,46.7 126.25,115.29 126.25,115.29 0,0 99.97,75.17 134.26,90.5 35.04,16.05 88.3,47.44 123.35,50.35 35.74,2.92 85.37,-1.46 134.28,-40.13 49.61,-38.69 78.06,-81.73 83.9,-96.33 5.85,-16.06 27,-72.98 -7.29,-112.39 -35.75,-38.67 -136.47,-132.08 -136.47,-132.08 0,0 -38.68,-23.36 -21.17,-50.35 18.25,-29.19 83.93,17.51 106.55,31.38 21.16,16.06 136.48,113.83 172.23,146.67 34.31,35.05 259.06,253.23 280.24,273.67 19.68,20.43 205.04,205.79 232.05,223.3 27,16.8 37.95,29.93 86.84,19.7 51.08,-10.22 81.02,-26.98 81.02,-26.98 0,0 52.53,-20.45 10.21,-53.3 -41.61,-32.09 -182.46,-149.58 -216.75,-187.54 -35.76,-35.75 -137.92,-137.92 -170.76,-175.14 -32.84,-37.22 -124.06,-148.13 -139.38,-170.03 -15.34,-21.16 -22.63,-44.52 0,-60.58 22.61,-13.87 61.29,1.47 103.63,36.5 41.58,32.84 162.72,139.38 206.51,180.98 43.07,43.06 275.86,264.9 296.28,283.86 21.17,16.79 129.17,103.64 129.17,103.64 0,0 13.14,18.25 44.52,18.25 31.39,0 63.49,-5.85 82.46,-13.14 19.7,-8.03 54,-28.47 54,-28.47 0,0 22.62,-10.2 -14.6,-37.22 -37.95,-27.72 -229.14,-180.25 -281.67,-236.43 -52.55,-56.19 -157.64,-170.77 -196.31,-224.03 -39.41,-53.29 -65.67,-76.63 -35.78,-112.4 29.93,-34.3 65.69,-26.99 83.93,-21.88 17.52,7.28 77.37,49.61 121.14,94.12 43.07,44.52 179.52,189.75 193.4,207.28 14.59,16.77 64.21,67.11 64.21,67.11 0,0 10.22,20.46 38.69,20.46 28.45,0 46.69,-4.38 75.16,-10.24 28.45,-5.83 89.76,-18.95 55.46,-53.25 -36.5,-35.77 -119.69,-122.61 -137.93,-143.77 -18.25,-21.9 -89.77,-100.72 -103.61,-124.06 -13.14,-24.09 -31.39,-50.37 -13.14,-61.31 19.7,-11.67 64.2,3.66 110.92,29.93 44.51,24.07 112.37,67.85 170.75,121.15 58.4,51.8 152.53,137.9 152.53,137.9 0,0 16.78,34.3 83.93,19.71 67.13,-15.32 83.91,-24.08 83.91,-24.08 0,0 52.55,-14.59 18.25,-44.52 -35.03,-32.1 -151.8,-136.45 -196.31,-178.78 -45.24,-43.06 -181.7,-182.45 -205.8,-209.443 -23.33,-27.73 -88.29,-89.757 -61.28,-92.687 26.99,-2.922 229.14,-41.582 277.3,-54.719 48.17,-12.418 206.53,-65.687 220.39,-72.996 z M 1718.21,1818.25 c 0,0 -56.93,8.75 -121.14,1.46 -64.24,-7.31 -260.54,-27.73 -299.94,-43.07 -37.22,-16.04 -64.22,19.7 -78.81,35.76 -16.78,14.6 -54,53.29 -54,53.29 0,0 -19.71,23.34 14.59,31.36 36.48,7.31 235.72,42.34 298.46,47.45 62.77,5.83 367.08,23.34 447.36,23.34 79.54,-1.46 361.23,-16.05 434.94,-35.75 0,0 14.59,4.37 29.9,-32.11 14.6,-37.23 11.69,-70.06 11.69,-70.06 0,0 15.33,-26.27 -37.22,-23.34 -51.09,4.37 -136.47,8.76 -194.84,11.67 -56.92,4.37 -196.31,14.59 -217.48,13.14 -18.96,-1.47 -24.81,0 -37.21,-16.05 -11.67,-17.53 -67.13,-87.59 -81.01,-106.56 -13.14,-17.53 -71.52,-91.95 -121.14,-159.82 -49.61,-65.69 -112.38,-149.59 -167.84,-237.17 -54.01,-87.58 -105.09,-168.57 -125.51,-205.8 -21.16,-35.75 -29.93,-59.11 -32.85,-67.86 -5.11,-8.02 -9.48,-22.61 -33.58,-24.08 -24.8,-1.48 -142.28,2.92 -142.28,2.92 0,0 -48.92,-4.4 -18.99,50.35 29.93,56.2 97.07,167.12 125.52,210.17 28.47,43.06 173.68,243.01 202.16,280.23 26.98,35.75 199.22,260.53 199.22,260.53"
         style="fill:#ed1c24;fill-opacity:1;fill-rule:evenodd;stroke:none"
         id="path46" /><path
         d="m 2026.17,1258.52 c 38.67,27.73 122.58,128.45 126.97,136.47 5.84,8.75 22.62,26.26 2.92,44.5 -18.97,17.53 -34.3,7.31 -55.45,-2.18 -20.45,-10.21 -116.78,-83.92 -152.54,-110.93 -34.29,-27.72 -122.6,-105.08 -122.6,-105.08 0,0 -48.16,-41.61 -31.38,-63.48 16.07,-21.91 32.85,-13.14 58.39,-5.85 26.99,7.3 132.8,79.55 173.69,106.55 z m -116.76,750.93 h -24.82 c -105.81,-1.47 -365.6,-16.06 -423.26,-21.16 -62.77,-5.86 -262,-40.87 -298.48,-48.9 -35.76,-8.76 -14.59,-30.66 -14.59,-30.66 0,0 37.23,-38.68 54,-54.73 14.59,-13.87 41.61,-51.8 79.54,-35.75 38.67,17.51 234.99,35.75 299.22,44.5 64.2,7.3 119.68,-1.45 119.68,-1.45 0,0 -170.77,-224.05 -197.79,-261.97 -28.45,-35.78 -173.67,-237.17 -202.14,-278.78 -28.44,-43.06 -95.58,-155.44 -126.97,-210.17 -29.92,-54.74 20.43,-51.83 20.43,-51.83 0,0 117.49,-2.91 142.3,-2.91 24.1,1.46 28.47,17.51 32.13,26.27 4.38,8.03 13.11,31.39 34.29,67.14 21.16,36.5 70.07,116.77 125.52,204.34 55.46,87.58 118.22,172.94 167.83,238.63 49.64,66.39 108.01,143.04 121.15,159.81 13.87,17.53 69.33,89.76 81,105.09 12.41,17.51 16.78,16.05 37.22,17.51 21.17,1.46 160.56,-8.74 217.47,-13.13 58.37,-4.38 142.31,-7.3 194.85,-11.69 52.55,-4.38 37.21,23.36 37.21,23.36 0,0 2.92,32.84 -11.67,69.34 -16.8,37.2 -29.93,31.39 -29.93,31.39 -75.17,21.16 -355.38,35.75 -434.19,35.75 z M 4000.15,756.438 c 11.69,-7.286 45.98,-16.043 41.61,-45.977 0,0 -28.47,-62.027 -40.14,-67.859 -12.4,-4.391 -32.84,-4.391 -79.54,14.601 -46.71,18.957 -260.53,73.703 -318.91,83.192 -56.92,11.675 -189,35.011 -189,35.011 0,0 -16.06,9.5 -43.05,-33.558 -28.48,-41.586 -112.38,-163.473 -112.38,-163.473 0,0 -5.86,-17.504 -21.17,-17.504 -16.07,0 -85.39,4.371 -110.94,18.961 -26.98,12.402 -32.84,10.953 -17.52,40.152 16.07,26.996 75.91,145.219 100,169.301 25.53,23.36 -14.59,17.508 -28.48,20.422 -13.13,1.473 -270.73,16.063 -347.34,14.613 -76.63,-1.476 -344.45,-1.476 -440.06,-7.304 -96.32,-7.309 -448.07,-38.672 -540.75,-54.727 -93.41,-14.609 -466.32,-69.332 -517.41,-79.555 -50.34,-9.48 -151.05,-26.996 -151.05,-26.996 0,0 -51.08,-13.136 -99.97,10.211 -49.64,22.625 -129.171,54.735 -62.03,74.446 69.31,21.894 399.89,88.304 503.53,103.625 103.62,14.589 425.44,62.027 561.91,69.312 134.99,7.316 499.88,27.016 637.82,25.543 136.45,-1.453 326.93,-9.488 407.21,-15.309 80.98,-5.855 134.98,-10.234 150.33,-13.14 16.04,-2.914 17.5,8.762 32.84,26.996 16.04,18.98 67.13,86.838 67.13,86.838 0,0 16.79,24.09 -16.05,2.92 -33.58,-20.43 -85.38,-21.89 -110.94,2.93 -26.98,25.53 -37.94,45.97 -49.61,38.67 -11.67,-7.29 -61.31,-32.1 -88.3,-40.12 -25.55,-8.77 -139.39,-35.051 -206.53,10.93 -69.32,45.98 -70.79,64.94 -79.54,86.84 -8.77,22.62 -13.88,21.17 -35.75,7.29 -22.64,-16.06 -99.26,-51.81 -127.72,-64.94 -28.47,-13.14 -49.63,-23.35 -94.14,-20.43 -43.78,4.38 -92.67,17.52 -113.84,53.28 -21.16,35.75 -22.62,62.02 -46.69,44.51 -24.11,-15.34 -148.16,-89.04 -213.84,-108.01 -67.86,-18.24 -83.91,-27 -121.86,-21.16 -38.67,7.29 -80.28,22.62 -94.15,45.97 -14.6,22.63 -17.52,28.46 -34.3,14.6 -16.77,-13.13 -64.21,-50.36 -100.7,-45.97 -37.21,3.64 -129.91,25.53 -180.97,120.4 -51.09,93.41 -13.14,134.28 31.36,180.26 46.72,47.43 127.72,116.04 127.72,116.04 0,0 99.97,73.69 134.26,91.2 35.05,15.33 86.84,47.44 123.35,50.36 34.29,0.74 85.38,-1.47 134.27,-40.87 49.61,-38.68 76.63,-81.74 83.91,-97.79 6.57,-13.86 27.02,-71.51 -8.75,-110.92 -34.28,-38.67 -135,-132.07 -135,-132.07 0,0 -40.14,-24.11 -20.43,-51.82 17.51,-27.01 83.9,17.51 104.36,32.82 22.61,14.62 137.91,113.86 173.68,147.42 35.01,34.29 259.06,253.23 278.76,271.46 19.7,20.46 205.08,207.28 233.52,224.78 27.01,16.77 37.95,29.91 86.84,19.71 49.63,-10.22 79.56,-27.01 79.56,-27.01 0,0 52.53,-20.43 10.94,-53.27 -40.87,-32.83 -181.72,-151.07 -216.02,-186.82 -35.74,-36.49 -137.92,-138.65 -170.76,-175.87 -32.83,-37.22 -125.52,-148.15 -139.37,-170.03 -14.6,-21.16 -22.63,-45.98 0,-59.86 22.62,-16.04 61.28,1.47 103.62,34.31 41.6,34.3 162.74,139.39 206.51,182.45 41.61,43.04 275.85,264.91 296.3,282.41 21.16,18.25 129.17,105.09 129.17,105.09 0,0 13.13,18.25 44.51,18.25 32.1,0 63.49,-5.86 82.45,-13.87 19.71,-7.31 54,-29.19 54,-29.19 0,0 22.63,-8.77 -14.59,-35.76 -37.95,-27.74 -230.61,-180.25 -283.15,-235.72 -51.08,-56.2 -156.16,-172.95 -196.31,-224.77 -38.66,-53.26 -64.2,-77.34 -34.3,-112.39 29.94,-35.74 65.69,-26.98 83.94,-21.15 17.5,5.83 77.36,48.89 121.14,93.42 43.06,43.05 179.51,188.28 193.39,207.23 14.59,16.8 64.21,67.14 64.21,67.14 0,0 10.21,20.45 38.68,20.45 28.45,0 46.7,-4.39 75.17,-10.21 28.45,-7.32 89.75,-18.25 55.45,-54.75 -35.75,-34.3 -119.67,-120.4 -137.92,-142.31 -18.25,-21.88 -89.76,-100.69 -103.62,-124.77 -13.13,-23.35 -31.38,-50.37 -13.13,-60.58 18.22,-11.67 64.2,4.38 109.45,29.91 45.97,24.81 113.85,67.89 172.22,119.69 58.39,53.29 152.53,137.93 152.53,137.93 0,0 15.33,35.77 83.92,20.43 67.14,-14.6 83.91,-23.35 83.91,-23.35 0,0 52.54,-14.59 18.25,-45.97 -35.02,-31.38 -151.78,-135.01 -196.31,-178.06 -45.23,-42.33 -181.71,-181.71 -205.05,-208.726 -24.09,-29.191 -89.05,-89.754 -62.03,-92.672 27,-2.195 229.14,-43.062 277.31,-55.453 48.17,-11.683 206.53,-66.41 220.37,-72.261"
         style="fill:#231f20;fill-opacity:1;fill-rule:evenodd;stroke:none"
         id="path48" /></g></g></svg>
